# xmcd
#
# Track frame offsets: 
#        200
#        17349
#        34575
#        45459
#        61641
#        80783
#        99963
#        113417
#        130574
#        152874
#
# Disc length: 2213 seconds
#
# Revision: 0
# Processed by: cddbd v1.5.1PL0 Copyright (c) Steve Scherf et al.
# Submitted via: ExactAudioCopy v0.95a5
#
DISCID=6408a30a
DTITLE=Mary Shaver - No Time Like Now
DYEAR=1999
DGENRE=Blues
TTITLE0=You Took Away My Blues
TTITLE1=Steamy Windows
TTITLE2=Just Your Fool
TTITLE3=Who's Lovin' You
TTITLE4=Betrayed By a Kiss
TTITLE5=Still I Fall
TTITLE6=Hound Dog
TTITLE7=Caught in Between
TTITLE8=Out of the Rain
TTITLE9=No Time Like Now
EXTD=
EXTT0=
EXTT1=
EXTT2=
EXTT3=
EXTT4=
EXTT5=
EXTT6=
EXTT7=
EXTT8=
EXTT9=
PLAYORDER=
